<svg width="360" height="76" viewBox="0 0 360 76" fill="none" xmlns="http://www.w3.org/2000/svg">
<g clip-path="url(#clip0)">
<path d="M154.847 33.5139L149.62 58.7967H136.003L141.23 33.5139C141.64 31.5267 141.402 31.1604 139.473 31.1604H134.557C132.64 31.1604 132.239 31.5267 131.833 33.4634C131.833 33.4634 131.833 33.4971 131.833 33.5139L126.606 58.7967H112.977L118.208 33.5139C118.618 31.5267 118.38 31.1604 116.447 31.1604H111.531C109.597 31.1604 109.208 31.5309 108.798 33.5139L103.567 58.7967H89.9506L97.9756 19.9862H109.036L110.789 23.3208C111.798 22.2294 113.019 21.3684 114.373 20.7939C115.726 20.2193 117.182 19.9442 118.646 19.9862H121.469C126.794 19.9862 130.387 22.3651 131.673 26.3859C134.053 21.9146 137.503 19.9862 141.669 19.9862H144.495C152.496 19.9862 156.563 25.2954 154.847 33.5139Z" fill="white"/>
<path d="M196.373 33.5139L193.944 45.269C192.244 53.4875 185.976 58.7967 177.968 58.7967H167.653C159.656 58.7967 155.589 53.4833 157.289 45.2648L159.718 33.5139C161.414 25.2954 167.681 19.9862 175.694 19.9862H186.025C194.005 19.9862 198.077 25.2954 196.373 33.5139ZM182.744 33.5139C183.154 31.5266 182.916 31.1603 180.987 31.1603H176.071C174.137 31.1603 173.748 31.5308 173.339 33.5139L170.905 45.2648C170.496 47.2521 170.737 47.6184 172.667 47.6184H177.583C179.512 47.6184 179.905 47.2479 180.315 45.2648L182.744 33.5139Z" fill="white"/>
<path d="M281.355 30.4235C280.856 32.6298 279.653 34.6011 277.938 36.0232L271.003 41.9176C269.34 43.3548 267.248 44.1631 265.075 44.208H255.473L255.256 45.248C254.846 47.2352 255.084 47.6015 257.017 47.6015H277.795L275.484 58.7799H251.987C243.991 58.7799 239.923 53.4665 241.623 45.248L244.052 33.497C245.752 25.2785 252.02 19.9694 260.028 19.9694H270.368C278.344 19.9862 282.469 25.0175 281.355 30.4235ZM267.091 33.5139C267.5 31.5266 267.263 31.1603 265.329 31.1603H260.413C258.488 31.1561 258.078 31.5308 257.669 33.5139L256.85 37.56H264.961C265.324 37.5445 265.673 37.4074 265.954 37.1696C266.235 36.9317 266.433 36.6061 266.517 36.2422L267.091 33.5139Z" fill="white"/>
<path d="M36.811 5.69226H54.09L39.7154 75.9999H22.4365L36.811 5.69226Z" fill="white"/>
<path d="M62.1641 5.69226H79.4431L68.2433 60.7797H50.9602L62.1641 5.69226Z" fill="white"/>
<path d="M11.2039 5.69226H28.4828L17.2831 60.7797H0L11.2039 5.69226Z" fill="white"/>
<path d="M246.279 19.9862L221.085 58.7967H207.187L197.997 19.9862H212.881L216.883 45.4711L231.395 20.0073L246.279 19.9862Z" fill="white"/>
<path d="M321.03 30.4542C320.532 32.6604 319.332 34.6317 317.62 36.0539L310.699 41.9483C309.04 43.3855 306.952 44.1938 304.784 44.2387H295.202L294.986 45.2786C294.577 47.2659 294.814 47.6322 296.743 47.6322H317.477L315.172 58.8105H291.723C283.744 58.8105 279.685 53.4971 281.381 45.2786L283.805 33.5277C285.502 25.3092 291.756 20 299.748 20H310.066C318.025 20.0168 322.141 25.0481 321.03 30.4542ZM306.796 33.5445C307.204 31.5573 306.967 31.191 305.038 31.191H300.132C298.211 31.1868 297.802 31.5615 297.393 33.5445L296.576 37.5906H304.67C305.033 37.5751 305.381 37.4381 305.661 37.2002C305.942 36.9623 306.139 36.6367 306.223 36.2728L306.796 33.5445Z" fill="white"/>
</g>
<defs>
<clipPath id="clip0">
<rect width="360" height="76" fill="white"/>
</clipPath>
</defs>
</svg>
